<?xml version="1.0" encoding="UTF-8"?>
<svg id="Layer_2" data-name="Layer 2" xmlns="http://www.w3.org/2000/svg" viewBox="0 0 401.81 401.76">
  <g>
    <path d="M200.9,200.88S.86,93.85,9.26,207.96c10.35,140.71,191.65-7.08,191.65-7.08Z" style="fill: #eb1d31;"/>
    <path d="M60.81,277.71c-9.2,0-17.46-1.57-24.76-4.72C14.78,263.84,2.75,242.18.28,208.62c-1.83-24.86,5.24-42.66,21.02-52.92,22-14.3,59.98-12.15,112.9,6.38,38.01,13.31,69.62,30.15,70.95,30.86l11.91,6.37-10.47,8.54c-1.12.91-27.74,22.51-61.56,41.56-33.45,18.84-61.65,28.3-84.22,28.3ZM58.86,164.26c-11.08,0-20.67,1.93-27.75,6.53-9.99,6.5-14.21,18.44-12.88,36.5,1.94,26.33,10.32,42.87,24.93,49.16,36.02,15.52,106.04-27.9,141.03-53.99-31.75-15.5-87.32-38.2-125.33-38.2Z" style="fill: #000d0d;"/>
  </g>
  <g>
    <path d="M200.9,200.88s111.79,197.42-2.48,191.76c-140.91-6.98,2.48-191.76,2.48-191.76Z" style="fill: #eb1d31;"/>
    <path d="M203.14,401.76c-1.69,0-3.41-.04-5.17-.13-33.61-1.66-55.55-13.17-65.21-34.21-11.47-24.96-4.42-61.81,20.96-109.52,18.23-34.27,39.19-61.4,40.07-62.54l8.28-10.67,6.66,11.76c.74,1.31,18.33,32.52,32.55,70.19,19.8,52.46,22.86,90.38,9.09,112.71-9.18,14.89-25.05,22.41-47.23,22.41ZM199.72,217.63c-25.24,35.61-66.98,106.64-50.6,142.28,6.64,14.45,23.38,22.44,49.75,23.74,18.09.89,29.93-3.6,36.18-13.75,19.62-31.82-14.33-111.76-35.33-152.28Z" style="fill: #000d0d;"/>
  </g>
  <g>
    <path d="M200.9,200.88s200.04,107.03,191.65-7.08c-10.35-140.71-191.65,7.08-191.65,7.08Z" style="fill: #eb1d31;"/>
    <path d="M342.8,255.39c-20.17,0-45.3-5.24-75.19-15.71-38.01-13.31-69.62-30.15-70.95-30.86l-11.91-6.37,10.47-8.54c1.12-.91,27.74-22.51,61.56-41.56,47.08-26.51,83.75-34.45,108.98-23.58,21.26,9.16,33.29,30.82,35.76,64.38,1.83,24.86-5.24,42.66-21.02,52.92-9.57,6.22-22.17,9.33-37.7,9.33ZM217.62,199.3c41.01,20.02,121.74,52.05,153.08,31.67,9.99-6.5,14.21-18.44,12.88-36.5-1.94-26.33-10.32-42.87-24.93-49.16-36.02-15.52-106.04,27.9-141.03,53.99Z" style="fill: #000d0d;"/>
  </g>
  <g>
    <path d="M200.9,200.88S89.11,3.46,203.39,9.12c140.91,6.98-2.48,191.76-2.48,191.76Z" style="fill: #eb1d31;"/>
    <path d="M199.73,217.07l-6.66-11.76c-.74-1.31-18.33-32.52-32.55-70.19-19.8-52.46-22.86-90.38-9.09-112.71C161.31,6.4,178.94-1.11,203.83.13c33.61,1.66,55.55,13.17,65.21,34.21,11.47,24.96,4.42,61.81-20.96,109.52-18.23,34.27-39.19,61.4-40.07,62.54l-8.28,10.67ZM198.57,18c-15.64,0-26.07,4.55-31.81,13.86-19.62,31.82,14.33,111.76,35.33,152.28,25.24-35.61,66.98-106.64,50.6-142.28-6.64-14.45-23.38-22.44-49.75-23.74-1.5-.07-2.96-.11-4.37-.11Z" style="fill: #000d0d;"/>
  </g>
  <g>
    <path d="M200.9,200.88s-217.9,63.16-132.18,138.95c105.7,93.45,132.18-138.95,132.18-138.95Z" style="fill: #92469b;"/>
    <path d="M115.36,371.01c-16.58,0-34.2-8.17-52.6-24.44-18.67-16.51-26.05-34.19-21.93-52.55,5.75-25.6,34.43-50.6,85.24-74.3,36.49-17.02,70.88-27.07,72.33-27.48l12.98-3.76-1.53,13.43c-.16,1.43-4.12,35.49-15.02,72.74-15.17,51.86-35.86,83.16-61.51,93.01-5.84,2.24-11.83,3.36-17.96,3.36ZM190.05,213.69c-43.33,14.32-123.47,47.8-131.66,84.28-2.61,11.63,2.72,23.12,16.29,35.11,19.78,17.48,37.33,23.46,52.18,17.76,36.62-14.06,56.38-94.04,63.19-137.15Z" style="fill: #000d0d;"/>
  </g>
  <g>
    <path d="M200.9,200.88s217.9,63.16,132.18,138.95c-105.7,93.45-132.18-138.95-132.18-138.95Z" style="fill: #92469b;"/>
    <path d="M286.45,371.01c-6.14,0-12.13-1.12-17.96-3.36-25.64-9.85-46.34-41.14-61.51-93-10.9-37.25-14.85-71.31-15.02-72.74l-1.53-13.43,12.98,3.76c1.45.42,35.83,10.46,72.33,27.48,50.81,23.7,79.49,48.7,85.24,74.3,4.12,18.36-3.25,36.04-21.93,52.55-18.4,16.27-36.02,24.44-52.6,24.44ZM211.75,213.69c6.81,43.11,26.57,123.1,63.19,137.16,14.84,5.7,32.4-.28,52.18-17.76,13.57-12,18.9-23.49,16.29-35.12-8.2-36.51-88.34-69.97-131.66-84.28Z" style="fill: #000d0d;"/>
  </g>
  <g>
    <path d="M200.9,200.88s217.9-63.16,132.18-138.95C227.39-31.51,200.9,200.88,200.9,200.88Z" style="fill: #92469b;"/>
    <path d="M190.43,213.29l1.53-13.43c.16-1.43,4.12-35.49,15.02-72.74,15.17-51.86,35.86-83.16,61.51-93,21.61-8.3,45.35-1.21,70.56,21.08,18.67,16.51,26.05,34.19,21.93,52.55-5.75,25.6-34.43,50.6-85.24,74.3-36.5,17.02-70.88,27.07-72.33,27.48l-12.98,3.76ZM286.31,48.83c-3.95,0-7.74.7-11.37,2.09-36.62,14.06-56.38,94.04-63.19,137.15,43.33-14.32,123.47-47.8,131.66-84.28,2.61-11.63-2.72-23.12-16.29-35.11-14.94-13.21-28.62-19.85-40.81-19.85Z" style="fill: #000d0d;"/>
  </g>
  <g>
    <path d="M200.9,200.88S-17,137.72,68.72,61.94C174.42-31.51,200.9,200.88,200.9,200.88Z" style="fill: #92469b;"/>
    <path d="M211.38,213.29l-12.98-3.76c-1.45-.42-35.83-10.46-72.33-27.48-50.81-23.7-79.49-48.7-85.24-74.3-4.12-18.36,3.25-36.04,21.93-52.55,25.21-22.29,48.95-29.38,70.56-21.08,25.64,9.85,46.34,41.14,61.51,93.01,10.9,37.25,14.85,71.31,15.02,72.74l1.53,13.43ZM115.49,48.83c-12.2,0-25.87,6.64-40.81,19.85-13.57,12-18.9,23.48-16.29,35.11,8.19,36.47,88.33,69.95,131.66,84.28-6.81-43.11-26.57-123.1-63.19-137.15-3.63-1.39-7.42-2.09-11.37-2.09Z" style="fill: #000d0d;"/>
  </g>
  <g>
    <circle cx="200.9" cy="200.88" r="83.5" style="fill: #ffc70d;"/>
    <path d="M200.9,293.38c-51,0-92.5-41.5-92.5-92.5s41.5-92.5,92.5-92.5,92.5,41.5,92.5,92.5-41.5,92.5-92.5,92.5ZM200.9,126.38c-41.08,0-74.5,33.42-74.5,74.5s33.42,74.5,74.5,74.5,74.5-33.42,74.5-74.5-33.42-74.5-74.5-74.5Z" style="fill: #000d0d;"/>
  </g>
</svg>